:SAMPLES-PER-SECOND 30
:FRAME-RANGE 1-4244
:FULLY-SPECIFIED
:DEGREES
796
root  16.8494 38.2317 34.1151 -12.0389 5.05572 -34.5247
RightUpLeg  -39.1373 9.49456 -48.5903
RightLeg  84.8653 0.0273795 -4.56322
RightFoot  -0.83294 -1.25213 13.4959
RightToes  -1.33073e-015 0 -3.6325e-017
Spine  16.1815 -2.9663 -0.124712
Spine1  -9.24894 -4.69488 13.7025
HEad  25.2878 -34.9901 12.7531
LeftShoulder1  1.02046 -4.78978 -4.99038
LeftArm  -7.5778 -27.0439 -36.4612
LeftForeArm  37.6068 -53.9869 -12.3387
LeftHand  -0.267829 2.82381 11.774
RightShoulder  1.33575 0.981961 25.027
RightArm  1.43872 -11.6162 25.5035
RightForeArm  21.9204 41.1249 8.34831
RightHand  -0.162595 -4.82548 -33.1961
LeftUpLeg  -17.2944 -16.2308 46.0197
LeftLeg  39.3404 -14.1685 -11.809
LeftFoot  -17.6702 -0.238599 -6.22532
LeftToes  2.72522e-012 8.43823e-011 6.24977e-012
797
root  17.6413 38.0108 34.3875 -14.5435 6.51961 -34.9448
RightUpLeg  -36.9855 16.6868 -51.3378
RightLeg  97.7039 0.830078 -3.01161
RightFoot  -4.41576 -0.488366 7.56172
RightToes  -1.33073e-015 0 -3.6325e-017
Spine  16.4914 -1.98101 1.41086
Spine1  -7.51562 -4.07755 12.4408
HEad  23.0501 -38.9578 13.7777
LeftShoulder1  0.987116 -4.66822 -4.73499
LeftArm  -13.4945 -23.4254 -29.5989
LeftForeArm  35.9232 -56.2284 -13.7171
LeftHand  -0.268562 2.75662 11.511
RightShoulder  0.868525 -0.546455 25.2452
RightArm  -1.77722 -11.1141 23.5868
RightForeArm  21.8237 42.8336 8.91627
RightHand  -0.07877 -5.11402 -33.6902
LeftUpLeg  -17.4192 -19.1521 43.8582
LeftLeg  42.8315 -11.4956 -10.8419
LeftFoot  -18.7331 -0.185369 -4.60585
LeftToes  2.72522e-012 8.43823e-011 6.24977e-012
798
root  18.387 38.2191 34.7579 -14.5241 5.28269 -34.6482
RightUpLeg  -37.8226 23.243 -51.2884
RightLeg  109.972 -1.14979 3.7636
RightFoot  -5.70223 -0.230861 3.89745
RightToes  -1.33073e-015 0 -3.6325e-017
Spine  13.2535 -1.07139 2.78568
Spine1  -4.01733 -3.44814 10.1003
HEad  24.4669 -40.3906 13.2299
LeftShoulder1  0.899285 -3.21691 -6.3205
LeftArm  -17.7389 -15.9728 -22.0317
LeftForeArm  31.8763 -55.6757 -13.7627
LeftHand  -0.336207 2.16198 11.9109
RightShoulder  0.890004 -0.517556 25.7179
RightArm  -4.66262 -8.17909 23.8424
RightForeArm  19.9047 42.762 9.02277
RightHand  0.287423 -6.30418 -34.8304
LeftUpLeg  -14.6284 -19.6612 41.8052
LeftLeg  41.6651 -10.1284 -9.16283
LeftFoot  -19.4044 -0.156204 -3.86562
LeftToes  2.72522e-012 8.43823e-011 6.24977e-012
799
root  19.3151 38.5419 34.9113 -13.63 5.45079 -32.4178
RightUpLeg  -36.7396 25.3349 -49.3128
RightLeg  118.734 -4.12533 7.60963
RightFoot  -0.972637 -0.555902 6.0473
RightToes  -1.33073e-015 0 -3.6325e-017
Spine  11.4607 -0.672762 0.739243
Spine1  -4.09121 -3.45007 10.6524
HEad  29.6452 -40.9081 11.6248
LeftShoulder1  0.654541 -1.24092 -7.00043
LeftArm  -18.0365 -6.47225 -17.6126
LeftForeArm  29.3575 -51.3015 -11.7047
LeftHand  -0.325214 2.36958 12.2829
RightShoulder  0.930981 -0.41314 26.0081
RightArm  -6.46472 -3.94287 26.3927
RightForeArm  22.8866 41.4558 8.39038
RightHand  -0.179984 -4.77459 -33.7083
LeftUpLeg  -13.4267 -19.1697 37.3023
LeftLeg  40.2646 -9.19659 -7.89971
LeftFoot  -18.2487 -0.0449562 -2.55741
LeftToes  2.72522e-012 8.43823e-011 6.24977e-012
800
root  20.2796 38.8724 34.94 -12.4944 5.49253 -29.5833
RightUpLeg  -33.0343 21.7995 -43.0577
RightLeg  126.28 -5.48098 7.51917
RightFoot  -4.98847 -0.33336 5.38985
RightToes  -1.33073e-015 0 -3.6325e-017
Spine  9.10454 -0.301753 0.440378
Spine1  -2.41781 -3.09435 7.90779
HEad  31.1513 -41.5777 10.9304
LeftShoulder1  0.544707 -0.279975 -7.88959
LeftArm  -14.7627 1.68431 -13.7584
LeftForeArm  25.2611 -44.7941 -9.35844
LeftHand  -0.342292 2.23474 12.4064
RightShoulder  0.878574 -0.58274 26.0733
RightArm  -8.0559 0.191327 30.5198
RightForeArm  25.045 41.3504 8.21409
RightHand  -0.058203 -5.17804 -32.1782
LeftUpLeg  -12.2205 -17.7873 31.8896
LeftLeg  38.1281 -6.97525 -5.47826
LeftFoot  -16.5427 0.0336392 -1.4432
LeftToes  2.72522e-012 8.43823e-011 6.24977e-012
801
root  21.438 39.1578 34.9017 -11.0773 4.17567 -26.3344
RightUpLeg  -30.0771 14.2129 -34.0216
RightLeg  130.101 -5.5618 6.70962
RightFoot  -6.25051 -0.247665 4.61116
RightToes  -1.33073e-015 0 -3.6325e-017
Spine  5.9772 0.476486 1.53345
Spine1  0.516201 -1.72392 3.24931
HEad  29.8468 -42.3835 11.2369
LeftShoulder1  0.584042 -0.375755 -8.64345
LeftArm  -8.62584 9.58261 -10.8193
LeftForeArm  23.4278 -38.807 -7.53806
LeftHand  -0.344056 2.36863 13.0142
RightShoulder  0.963779 -0.315887 26.0708
RightArm  -7.77459 5.01991 34.7695
RightForeArm  25.3869 41.1438 8.12625
RightHand  0.0448752 -5.56143 -30.0104
LeftUpLeg  -10.4479 -15.5958 26.0382
LeftLeg  35.5684 -4.92215 -3.40887
LeftFoot  -14.9005 0.0915809 0.0703148
LeftToes  2.72522e-012 8.43823e-011 6.24977e-012
802
root  22.7028 39.2644 34.8474 -9.72507 2.75712 -23.1396
RightUpLeg  -27.9639 4.22514 -24.1488
RightLeg  129.014 -4.25314 5.47314
RightFoot  -3.13358 -0.463257 6.15208
RightToes  -1.33073e-015 0 -3.6325e-017
Spine  4.45864 1.22052 1.98744
Spine1  1.11595 -0.352851 0.634466
HEad  29.5405 -42.6229 10.1468
LeftShoulder1  0.537226 0.0571995 -9.39423
LeftArm  -1.86273 17.2604 -10.0766
LeftForeArm  18.9614 -33.9398 -6.46241
LeftHand  -0.353605 2.15507 12.5188
RightShoulder  1.24805 0.649822 25.4278
RightArm  -5.40838 10.1897 39.49
RightForeArm  26.2286 39.1108 7.45291
RightHand  -0.00894181 -5.3607 -28.7332
LeftUpLeg  -9.45249 -14.1 20.3643
LeftLeg  33.8366 -3.43834 -2.11203
LeftFoot  -13.5655 0.123421 2.16083
LeftToes  2.72522e-012 8.43823e-011 6.24977e-012
